<?xml version="1.0" encoding="UTF-8"?>
<svg width="512" height="512" enable-background="new 0 0 512 512" version="1.1" viewBox="0 0 512 512" xmlns="http://www.w3.org/2000/svg" xmlns:cc="http://creativecommons.org/ns#" xmlns:dc="http://purl.org/dc/elements/1.1/" xmlns:rdf="http://www.w3.org/1999/02/22-rdf-syntax-ns#">
 <metadata>
  <rdf:RDF>
   <cc:Work rdf:about="">
    <dc:format>image/svg+xml</dc:format>
    <dc:type rdf:resource="http://purl.org/dc/dcmitype/StillImage"/>
    <dc:title/>
   </cc:Work>
  </rdf:RDF>
 </metadata>
 <path d="m506.24 243.713-27.92-23.27c-13.88-11.57-31.03-18.58-48.94-20.12l-18.36-20.88c-7.713-8.762-21.833-6.578-26.61 3.98l-15.22 33.78c-16 9.7-34.23 14.8-53.02 14.8h-125.5c-20.89 0-40.45 5.82-57.14 15.92-20.91-1.27-37.53-18.69-37.53-39.92v-62.03c0-46.2-31.3-86.29-76.12-97.49-10.034-2.519-19.88 5.061-19.88 15.52v152c0 51.54 33.16 96.98 80.79 113.44-1.127 9.408-.79 6.35-.79 118.56 0 8.84 7.16 16 16 16h32c6.239 0 11.861-3.658 14.45-9.12.674-1.46-.47 1.781 13.96-41.51 3.98-1.19 7.85-2.62 11.59-4.28v38.91c0 8.84 7.16 16 16 16h32c8.84 0 16-7.16 16-16v-56h48v56c0 8.837 7.163 16 16 16h32c8.84 0 16-7.16 16-16v-19.16l18.69 28.04c2.96 4.45 7.96 7.12 13.31 7.12h24c10.085 0 17.668-9.249 15.69-19.14l-15.69-78.44c0-13.578-1.234-30.55 15.31-47.11 16.8-16.784 34.538-15.31 48.69-15.31 26.47 0 48-21.53 48-48 0-4.75-2.11-9.25-5.76-12.29zm-190.07 71.29h-125.5c-43.38 0-78.67 35.29-78.67 78.67 0-51.738-2.154-64.313 7.64-84.8 19.23-16.14 44.02-25.87 71.03-25.87h125.5c20.27 0 39.9-5.94 56.77-17.19 7.35-4.9 17.28-2.91 22.18 4.44 4.91 7.35 2.92 17.29-4.43 22.19-22.14 14.76-47.91 22.56-74.52 22.56z"/>
</svg>
